<svg width="1280" height="681" viewBox="0 0 1280 681" fill="none" xmlns="http://www.w3.org/2000/svg">
<line x1="13" y1="583" x2="13" y2="438" stroke="#00FFF0" stroke-width="10" stroke-linecap="round"/>
<line x1="37" y1="563" x2="37" y2="458" stroke="#00FFF0" stroke-width="10" stroke-linecap="round"/>
<line x1="60" y1="572" x2="60" y2="493" stroke="#00FFF0" stroke-width="10" stroke-linecap="round"/>
<line x1="83" y1="578" x2="83" y2="506" stroke="#00FFF0" stroke-width="10" stroke-linecap="round"/>
<line x1="105" y1="646" x2="105" y2="473" stroke="#00FFF0" stroke-width="10" stroke-linecap="round"/>
<line x1="127" y1="626" x2="127" y2="528" stroke="#00FFF0" stroke-width="10" stroke-linecap="round"/>
<line x1="150" y1="660" x2="150" y2="500" stroke="#00FFF0" stroke-width="10" stroke-linecap="round"/>
<line x1="174" y1="650" x2="174" y2="541" stroke="#00FFF0" stroke-width="10" stroke-linecap="round"/>
<line x1="197" y1="661" x2="197" y2="568" stroke="#00FFF0" stroke-width="10" stroke-linecap="round"/>
<line x1="221" y1="661" x2="221" y2="488" stroke="#00FFF0" stroke-width="10" stroke-linecap="round"/>
<line x1="244" y1="635" x2="244" y2="473" stroke="#00FFF0" stroke-width="10" stroke-linecap="round"/>
<line x1="267" y1="641" x2="267" y2="535" stroke="#00FFF0" stroke-width="10" stroke-linecap="round"/>
<line x1="290" y1="624" x2="290" y2="552" stroke="#00FFF0" stroke-width="10" stroke-linecap="round"/>
<line x1="311" y1="625" x2="311" y2="513" stroke="#00FFF0" stroke-width="10" stroke-linecap="round"/>
<line x1="335" y1="657" x2="335" y2="480" stroke="#00FFF0" stroke-width="10" stroke-linecap="round"/>
<line x1="358" y1="546" x2="358" y2="476" stroke="#00FFF0" stroke-width="10" stroke-linecap="round"/>
<line x1="380" y1="524" x2="380" y2="456" stroke="#00FFF0" stroke-width="10" stroke-linecap="round"/>
<line x1="404" y1="534" x2="404" y2="425" stroke="#00FFF0" stroke-width="10" stroke-linecap="round"/>
<line x1="427" y1="559" x2="427" y2="388" stroke="#00FFF0" stroke-width="10" stroke-linecap="round"/>
<line x1="450" y1="531" x2="450" y2="362" stroke="#00FFF0" stroke-width="10" stroke-linecap="round"/>
<line x1="474" y1="544" x2="474" y2="396" stroke="#00FFF0" stroke-width="10" stroke-linecap="round"/>
<line x1="497" y1="589" x2="497" y2="432" stroke="#00FFF0" stroke-width="10" stroke-linecap="round"/>
<line x1="520" y1="572" x2="520" y2="449" stroke="#00FFF0" stroke-width="10" stroke-linecap="round"/>
<line x1="542" y1="589" x2="542" y2="432" stroke="#00FFF0" stroke-width="10" stroke-linecap="round"/>
<line x1="565" y1="578" x2="565" y2="444" stroke="#00FFF0" stroke-width="10" stroke-linecap="round"/>
<line x1="588" y1="564" x2="588" y2="457" stroke="#00FFF0" stroke-width="10" stroke-linecap="round"/>
<line x1="612" y1="556" x2="612" y2="465" stroke="#00FFF0" stroke-width="10" stroke-linecap="round"/>
<line x1="634" y1="584" x2="634" y2="438" stroke="#00FFF0" stroke-width="10" stroke-linecap="round"/>
<line x1="657" y1="555" x2="657" y2="467" stroke="#00FFF0" stroke-width="10" stroke-linecap="round"/>
<line x1="681" y1="597" x2="681" y2="424" stroke="#00FFF0" stroke-width="10" stroke-linecap="round"/>
<line x1="704" y1="568" x2="704" y2="453" stroke="#00FFF0" stroke-width="10" stroke-linecap="round"/>
<line x1="727" y1="547" x2="727" y2="474" stroke="#00FFF0" stroke-width="10" stroke-linecap="round"/>
<line x1="749" y1="589" x2="749" y2="432" stroke="#00FFF0" stroke-width="10" stroke-linecap="round"/>
<line x1="772" y1="589" x2="772" y2="432" stroke="#00FFF0" stroke-width="10" stroke-linecap="round"/>
<line x1="795" y1="547" x2="795" y2="474" stroke="#00FFF0" stroke-width="10" stroke-linecap="round"/>
<line x1="819" y1="578" x2="819" y2="443" stroke="#00FFF0" stroke-width="10" stroke-linecap="round"/>
<line x1="842" y1="577" x2="842" y2="445" stroke="#00FFF0" stroke-width="10" stroke-linecap="round"/>
<line x1="865" y1="583" x2="865" y2="438" stroke="#00FFF0" stroke-width="10" stroke-linecap="round"/>
<line x1="888" y1="575" x2="888" y2="446" stroke="#00FFF0" stroke-width="10" stroke-linecap="round"/>
<line x1="911" y1="593" x2="911" y2="429" stroke="#00FFF0" stroke-width="10" stroke-linecap="round"/>
<line x1="934" y1="554" x2="934" y2="467" stroke="#00FFF0" stroke-width="10" stroke-linecap="round"/>
<line x1="958" y1="559" x2="958" y2="462" stroke="#00FFF0" stroke-width="10" stroke-linecap="round"/>
<line x1="979" y1="584" x2="979" y2="437" stroke="#00FFF0" stroke-width="10" stroke-linecap="round"/>
<line x1="1002" y1="565" x2="1002" y2="456" stroke="#00FFF0" stroke-width="10" stroke-linecap="round"/>
<line x1="1025" y1="559" x2="1025" y2="462" stroke="#00FFF0" stroke-width="10" stroke-linecap="round"/>
<line x1="1049" y1="566" x2="1049" y2="455" stroke="#00FFF0" stroke-width="10" stroke-linecap="round"/>
<line x1="1072" y1="591" x2="1072" y2="430" stroke="#00FFF0" stroke-width="10" stroke-linecap="round"/>
<line x1="1095" y1="558" x2="1095" y2="463" stroke="#00FFF0" stroke-width="10" stroke-linecap="round"/>
<line x1="1119" y1="546" x2="1119" y2="476" stroke="#00FFF0" stroke-width="10" stroke-linecap="round"/>
<line x1="1142" y1="552" x2="1142" y2="469" stroke="#00FFF0" stroke-width="10" stroke-linecap="round"/>
<line x1="1164" y1="554" x2="1164" y2="467" stroke="#00FFF0" stroke-width="10" stroke-linecap="round"/>
<line x1="1186" y1="565" x2="1186" y2="456" stroke="#00FFF0" stroke-width="10" stroke-linecap="round"/>
<line x1="1209" y1="537" x2="1209" y2="397" stroke="#00FFF0" stroke-width="10" stroke-linecap="round"/>
<line x1="1232" y1="565" x2="1232" y2="421" stroke="#00FFF0" stroke-width="10" stroke-linecap="round"/>
<line x1="1256" y1="575" x2="1256" y2="436" stroke="#00FFF0" stroke-width="10" stroke-linecap="round"/>
<line x1="1279" y1="594" x2="1279" y2="427" stroke="#00FFF0" stroke-width="10" stroke-linecap="round"/>
<script xmlns=""/></svg>