<svg width="1280" height="269" viewBox="0 0 1280 269" fill="none" xmlns="http://www.w3.org/2000/svg">
<path fill-rule="evenodd" clip-rule="evenodd" d="M-181 31.1858L-160.356 41.8546C-139.712 52.5234 -99.5719 73.861 -58.2844 105.047C-18.1438 136.233 23.1438 178.908 63.2844 210.094C104.572 241.279 144.712 262.617 186 267.541C227.288 273.286 267.428 262.617 308.716 225.686C348.856 188.756 390.144 126.384 430.284 120.64C471.572 115.716 511.713 168.239 553 173.163C594.288 178.908 634.428 136.233 675.716 136.233C715.856 136.233 757.144 178.908 797.284 194.501C838.572 210.094 878.713 199.425 920 162.494C961.287 126.384 1001.43 63.1922 1042.72 47.5993C1082.86 31.1858 1124.14 63.1922 1164.28 89.4539C1205.57 115.716 1245.71 136.233 1266.36 146.901L1287 157.57V0H1266.36C1245.71 0 1205.57 0 1164.28 0C1124.14 0 1082.86 0 1042.72 0C1001.43 0 961.287 0 920 0C878.713 0 838.572 0 797.284 0C757.144 0 715.856 0 675.716 0C634.428 0 594.288 0 553 0C511.713 0 471.572 0 430.284 0C390.144 0 348.856 0 308.716 0C267.428 0 227.288 0 186 0C144.712 0 104.572 0 63.2844 0C23.1438 0 -18.1438 0 -58.2844 0C-99.5719 0 -139.712 0 -160.356 0H-181V31.1858Z" fill="#FC8484"/>
<script xmlns=""/></svg>