<svg width="1280" height="268" viewBox="0 0 1280 268" fill="none" xmlns="http://www.w3.org/2000/svg">
<path fill-rule="evenodd" clip-rule="evenodd" d="M-181 31.0698L-160.356 41.699C-139.712 52.3281 -99.5719 73.5864 -58.2844 104.656C-18.1438 135.726 23.1438 178.243 63.2844 209.313C104.572 240.382 144.712 261.641 186 266.546C227.288 272.27 267.428 261.641 308.716 224.847C348.856 188.054 390.144 125.915 430.284 120.191C471.572 115.285 511.713 167.614 553 172.519C594.288 178.243 634.428 135.726 675.716 135.726C715.856 135.726 757.144 178.243 797.284 193.778C838.572 209.313 878.713 198.683 920 161.89C961.287 125.915 1001.43 62.9573 1042.72 47.4224C1082.86 31.0698 1124.14 62.9573 1164.28 89.1214C1205.57 115.285 1245.71 135.726 1266.36 146.355L1287 156.984V0H1266.36C1245.71 0 1205.57 0 1164.28 0C1124.14 0 1082.86 0 1042.72 0C1001.43 0 961.287 0 920 0C878.713 0 838.572 0 797.284 0C757.144 0 715.856 0 675.716 0C634.428 0 594.288 0 553 0C511.713 0 471.572 0 430.284 0C390.144 0 348.856 0 308.716 0C267.428 0 227.288 0 186 0C144.712 0 104.572 0 63.2844 0C23.1438 0 -18.1438 0 -58.2844 0C-99.5719 0 -139.712 0 -160.356 0H-181V31.0698Z" fill="#0099FF"/>
<script xmlns=""/></svg>